<?xml version="1.0" encoding="UTF-8" standalone="no"?>
<!DOCTYPE svg PUBLIC "-//W3C//DTD SVG 1.1//EN" "http://www.w3.org/Graphics/SVG/1.1/DTD/svg11.dtd">
<svg width="100%" height="100%" viewBox="0 0 1586 1421" version="1.1" xmlns="http://www.w3.org/2000/svg" xmlns:xlink="http://www.w3.org/1999/xlink" xml:space="preserve" xmlns:serif="http://www.serif.com/" style="fill-rule:evenodd;clip-rule:evenodd;stroke-linejoin:round;stroke-miterlimit:2;">
    <g transform="matrix(4.16667,0,0,4.16667,-1120.28,-1559.42)">
        <path d="M649.511,556.245L607.073,584.738C600.665,589.05 596.01,595.499 593.934,602.935L584.927,635.317L569.038,692.405C539.819,692.405 508.269,699.214 515.564,670.922L535.154,600.023L544.101,565.253C544.746,565.302 545.391,565.323 546.025,565.323C547.013,565.323 547.99,565.272 548.967,565.171L548.978,565.171C563.425,563.691 574.71,551.489 574.71,536.638C574.71,535.65 574.66,534.663 574.559,533.706L574.559,533.696C572.997,518.391 559.405,506.653 543.396,508.074C529.784,509.293 518.75,520.255 517.471,533.867C516.343,545.756 522.508,556.326 532,561.656L525.119,588.385L506.973,658.843C501.884,678.602 484.071,692.405 463.678,692.405L324.858,692.405C316.384,692.405 309.564,685.333 309.967,676.768C310.34,668.748 317.251,662.582 325.281,662.582L421.563,662.582C430.036,662.582 436.858,655.508 436.454,646.945C436.082,638.924 429.17,632.749 421.139,632.749L382.772,632.749C378.661,632.749 374.933,631.076 372.233,628.376C369.533,625.675 367.861,621.947 367.861,617.836C367.861,609.594 374.54,602.924 382.772,602.924L473.804,602.924C482.288,602.924 489.109,595.851 488.706,587.288C488.323,579.267 481.421,573.091 473.391,573.091L295.992,573.091C287.509,573.091 280.687,566.018 281.09,557.454C281.473,549.434 288.375,543.268 296.405,543.268L443.769,543.268C447.89,543.268 451.618,541.595 454.318,538.895C457.019,536.205 458.691,532.477 458.691,528.356C458.691,520.114 452.011,513.434 443.769,513.434L408.727,513.434C400.243,513.434 393.422,506.371 393.825,497.807C394.208,489.777 401.11,483.611 409.14,483.611L515.888,483.611C524.998,478.593 535.396,475.772 546.328,475.772C578.529,475.772 603.889,499.48 608.614,528.779L649.511,556.245Z" style="fill:rgb(214,0,0);fill-rule:nonzero;"/>
    </g>
    <g transform="matrix(4.16667,0,0,4.16667,-1120.28,-1559.42)">
        <path d="M597.763,468.034L466.066,468.034C426.278,468.034 394.027,435.772 394.027,395.984L429.895,395.984C428.555,389.767 427.85,383.329 427.85,376.73L506.459,376.73C516.826,376.73 526.791,378.462 536.081,381.647C571.97,393.949 597.763,427.974 597.763,468.034Z" style="fill:rgb(214,0,0);fill-rule:nonzero;"/>
    </g>
    <g transform="matrix(4.16667,0,0,4.16667,-1120.28,-1559.42)">
        <path d="M268.912,677.491C268.912,685.727 275.589,692.405 283.826,692.405C292.062,692.405 298.739,685.727 298.739,677.491C298.739,669.254 292.062,662.577 283.826,662.577C275.589,662.577 268.912,669.254 268.912,677.491Z" style="fill:rgb(214,0,0);fill-rule:nonzero;"/>
    </g>
    <g transform="matrix(4.16667,0,0,4.16667,-1120.28,-1559.42)">
        <path d="M362.76,513.438C370.997,513.438 377.675,506.761 377.675,498.524C377.675,490.287 370.997,483.61 362.76,483.61C354.524,483.61 347.847,490.287 347.847,498.524C347.847,506.761 354.524,513.438 362.76,513.438Z" style="fill:rgb(214,0,0);fill-rule:nonzero;"/>
    </g>
</svg>
